<svg xmlns="http://www.w3.org/2000/svg" viewBox="0 0 216.39 216.39"><defs><style>.cls-1{fill:#1792d1;}</style></defs><title>Barrett James Butterfield</title><g id="Layer_2" data-name="Layer 2"><g id="Layer_1-2" data-name="Layer 1"><path class="cls-1" d="M212.39,4V212.39H4V4H212.39m4-4H0V216.39H216.39V0Z"/><path class="cls-1" d="M47.81,146.25V67.15h16.3a57.64,57.64,0,0,1,7.76.46,26.54,26.54,0,0,1,6.59,1.8A15,15,0,0,1,83.78,73a16.27,16.27,0,0,1,3.34,5.91,27,27,0,0,1,1.25,8.68q0,6.2-2.92,9.76T76.38,103q14.11,3.43,14.11,20,0,11.91-5.71,17.62t-17.45,5.71Zm15.91-48h2.72a7.48,7.48,0,0,0,3.69-.83A5.38,5.38,0,0,0,72.4,95a12.84,12.84,0,0,0,1.08-3.45,26.81,26.81,0,0,0,.31-4.35,18.75,18.75,0,0,0-.29-3.47,17.34,17.34,0,0,0-.64-2.48,3.74,3.74,0,0,0-1.19-1.67,8.94,8.94,0,0,0-1.47-1,6,6,0,0,0-1.93-.48q-1.3-.15-2.09-.18l-2.46,0ZM63.81,135H65.3a14.66,14.66,0,0,0,5.05-.73,5.53,5.53,0,0,0,2.94-2.48,11.22,11.22,0,0,0,1.34-4,42.62,42.62,0,0,0,.33-6q0-6.2-2.17-9.62t-7.41-3.43H63.81Z"/><path class="cls-1" d="M94.11,147.75V136.5q5.8.09,7.73-1.74t1.93-7.62v-60h16v60.12a56,56,0,0,1-.42,7.4,21.3,21.3,0,0,1-1.56,5.67,10.42,10.42,0,0,1-3.12,4.15,14.46,14.46,0,0,1-5.12,2.39,29.15,29.15,0,0,1-7.58.86Z"/><path class="cls-1" d="M128.28,146.25V67.15h16.3a57.64,57.64,0,0,1,7.76.46,26.54,26.54,0,0,1,6.59,1.8A15,15,0,0,1,164.24,73a16.27,16.27,0,0,1,3.34,5.91,27,27,0,0,1,1.25,8.68q0,6.2-2.92,9.76T156.84,103q14.11,3.43,14.11,20,0,11.91-5.71,17.62t-17.45,5.71Zm15.91-48h2.72a7.48,7.48,0,0,0,3.69-.83A5.37,5.37,0,0,0,152.86,95a12.77,12.77,0,0,0,1.08-3.45,26.83,26.83,0,0,0,.31-4.35,18.75,18.75,0,0,0-.29-3.47,17.37,17.37,0,0,0-.64-2.48,3.74,3.74,0,0,0-1.19-1.67,8.85,8.85,0,0,0-1.47-1,5.92,5.92,0,0,0-1.93-.48q-1.29-.15-2.09-.18l-2.46,0Zm.09,36.69h1.49a14.65,14.65,0,0,0,5.05-.73,5.53,5.53,0,0,0,2.95-2.48,11.22,11.22,0,0,0,1.34-4,42.57,42.57,0,0,0,.33-6q0-6.2-2.18-9.62t-7.4-3.43h-1.58Z"/></g></g></svg>