<svg xmlns="http://www.w3.org/2000/svg" viewBox="0 0 36.66 36.66"><defs><style>.cls-1{fill:#8e99a8;}</style></defs><title>Asset 1</title><g id="Layer_2" data-name="Layer 2"><g id="_01-SINGLE-GREY" data-name="01-SINGLE-GREY"><path id="Instagram" class="cls-1" d="M32.3,0H4.36A4.35,4.35,0,0,0,0,4.35v28a4.35,4.35,0,0,0,4.36,4.35H32.3a4.35,4.35,0,0,0,4.36-4.35v-28A4.35,4.35,0,0,0,32.3,0Zm-6,5.73A1.15,1.15,0,0,1,27.5,4.58h3.44a1.15,1.15,0,0,1,1.15,1.15V9.17a1.15,1.15,0,0,1-1.15,1.15H27.5a1.15,1.15,0,0,1-1.15-1.15Zm-8,5.61a7,7,0,1,1-7,7A7,7,0,0,1,18.37,11.34ZM33.23,32.08a1.15,1.15,0,0,1-1.15,1.15H4.58a1.15,1.15,0,0,1-1.15-1.15V14.89H8a7,7,0,0,0-.8,3.48,11.15,11.15,0,0,0,22.31,0,5.87,5.87,0,0,0-.88-3.48h4.58Z"/></g></g></svg>