<svg xmlns="http://www.w3.org/2000/svg" viewBox="0 0 26.01 34.01"><defs><style>.cls-1{fill:#fff;fill-rule:evenodd}</style></defs><title>Asset 1</title><g id="Layer_2" data-name="Layer 2"><path class="cls-1" d="M13.79 0C4.62 0 0 6.65 0 12.2c0 3.36 1.26 6.35 4 7.46a.66.66 0 0 0 1-.49c.09-.34.3-1.21.4-1.57a1 1 0 0 0-.4-1.08 5.68 5.68 0 0 1-1.27-3.83 9.19 9.19 0 0 1 9.5-9.35c5.18 0 8 3.21 8 7.49 0 5.63-2.46 10.39-6.12 10.39a3 3 0 0 1-3-3.76c.58-2.48 1.7-5.15 1.7-6.93 0-1.6-.85-2.93-2.6-2.93-2.06 0-3.72 2.16-3.72 5.06a7.6 7.6 0 0 0 .62 3.09L5.64 26.37a22.17 22.17 0 0 0-.06 7.42.26.26 0 0 0 .42.11 20.93 20.93 0 0 0 3.48-6.39c.24-.87 1.36-5.37 1.36-5.37a5.52 5.52 0 0 0 4.71 2.43C21.8 24.58 26 18.85 26 11.19 26 5.4 21.16 0 13.79 0z" id="Pinterest"/></g></svg>